<svg id="Layer_2" data-name="Layer 2" xmlns="http://www.w3.org/2000/svg" viewBox="0 0 213.72 213.73"><defs><style>.cls-1{fill:#fff;}</style></defs><title>yyx</title><path d="M212.26,104.24l-9-5.55c-.08-.88-.16-1.75-.26-2.62l7.71-7.19a3.08,3.08,0,0,0-1-5.15L199.86,80c-.24-.85-.5-1.7-.77-2.54L205.24,69a3.08,3.08,0,0,0-2-4.85l-10.39-1.69c-.41-.79-.83-1.57-1.25-2.34L196,50.49A3.09,3.09,0,0,0,193,46.13l-10.55.36c-.54-.68-1.1-1.35-1.67-2l2.43-10.27a3.09,3.09,0,0,0-3.72-3.72L169.26,32.9c-.66-.56-1.34-1.12-2-1.66l.36-10.55A3,3,0,0,0,166.23,18a3.1,3.1,0,0,0-3-.24l-9.59,4.37c-.77-.43-1.55-.85-2.33-1.25l-1.69-10.4a3.1,3.1,0,0,0-4.86-2l-8.54,6.15c-.84-.27-1.69-.52-2.54-.77L130,4a3.08,3.08,0,0,0-5.15-1l-7.19,7.71c-.87-.09-1.74-.18-2.61-.25l-5.56-9a3.09,3.09,0,0,0-5.25,0l-5.55,9c-.88.07-1.75.16-2.62.25L88.88,3a3.08,3.08,0,0,0-5.15,1L80,13.86l-2.54.77L69,8.48a3.1,3.1,0,0,0-4.86,2l-1.69,10.4c-.79.4-1.56.82-2.34,1.25l-9.58-4.37a3.09,3.09,0,0,0-4.37,2.92l.37,10.55c-.68.54-1.36,1.1-2,1.66L34.19,30.48a3.11,3.11,0,0,0-2.89.82,3.08,3.08,0,0,0-.82,2.9L32.9,44.47c-.57.67-1.12,1.34-1.67,2l-10.55-.36A3.1,3.1,0,0,0,18,47.5a3,3,0,0,0-.24,3l4.37,9.59q-.64,1.16-1.26,2.34L10.49,64.11A3.07,3.07,0,0,0,8.13,66a3.13,3.13,0,0,0,.35,3l6.15,8.54c-.27.84-.53,1.69-.77,2.54L4,83.73a3.08,3.08,0,0,0-1,5.15l7.71,7.19c-.1.87-.18,1.75-.26,2.62l-9,5.55a3.09,3.09,0,0,0,0,5.25l9,5.56c.08.87.16,1.74.26,2.61L3,124.85A3.08,3.08,0,0,0,4,130l9.86,3.69c.24.85.5,1.7.77,2.54l-6.15,8.54a3.09,3.09,0,0,0,2,4.86l10.39,1.69c.41.79.83,1.56,1.26,2.34l-4.37,9.58a3.09,3.09,0,0,0,2.91,4.37l10.55-.37c.55.68,1.1,1.35,1.67,2l-2.42,10.28a3.08,3.08,0,0,0,3.71,3.71l10.28-2.42c.66.57,1.34,1.12,2,1.66L46.12,193A3.09,3.09,0,0,0,50.49,196l9.58-4.37c.78.43,1.55.84,2.34,1.25l1.69,10.39a3.09,3.09,0,0,0,4.86,2l8.54-6.15c.84.27,1.69.53,2.54.78l3.69,9.85a3.08,3.08,0,0,0,5.15,1L96.07,203c.87.1,1.74.18,2.62.26l5.55,9a3.08,3.08,0,0,0,5.25,0l5.55-9c.88-.08,1.75-.16,2.62-.26l7.19,7.71a3.08,3.08,0,0,0,5.15-1l3.69-9.85c.85-.25,1.7-.51,2.54-.78l8.54,6.15a3.08,3.08,0,0,0,4.85-2l1.7-10.39,2.33-1.25,9.59,4.37A3.08,3.08,0,0,0,167.6,193l-.36-10.55c.68-.55,1.35-1.09,2-1.66l10.27,2.42a3.09,3.09,0,0,0,3.72-3.71l-2.42-10.28c.56-.67,1.12-1.34,1.66-2l10.55.37a3.09,3.09,0,0,0,2.91-4.37l-4.36-9.58c.42-.78.84-1.55,1.25-2.34l10.39-1.69a3.09,3.09,0,0,0,2-4.86l-6.15-8.54c.27-.84.53-1.69.77-2.54l9.86-3.69a3.09,3.09,0,0,0,1-5.15L203,117.66c.1-.87.18-1.74.26-2.61l9-5.56a3.09,3.09,0,0,0,0-5.25Z" transform="translate(0)"/><ellipse class="cls-1" cx="105.79" cy="106.86" rx="74.9" ry="76.91"/><g id="Layer_1" data-name="Layer 1"><path d="M105.54,185.87c-11.44,1.66-23-3.09-34.51-7.81-2.89-1.18-6-1.82-8.81-3.21-5.56-2.79-11.53-5.16-15.19-10.63-4.46-6.66-3.33-13.7,0-20.15,2.31-4.45,2.88-9.42,5.26-13.71,2.79-5,4.2-10.63,6.41-15.89,1.54-3.67,2.13-8,3.46-11.91,2-6.08,4.36-12.09,6.43-18.17s2.34-12.62,4.94-18.56c.23-.51.14-1.2.46-1.61,1.21-1.61,1.59-2.8-.77-3.83-.88-.39-1.35-1.7-1.67-2.84-1.55-5.37,7-15.94,13.08-13.88.85.29,2,.19,2.57.74,2.46,2.48,5,2,8.11,1.31,8.15-1.73,16.15.08,24,2.16a3.61,3.61,0,0,0,3.67-.54c3.91-3,10.63-2.65,14.18.54a5.34,5.34,0,0,1,1.69,4.64c-1.13,9.76,3.46,18.72,3.87,28.27.15,3.6.17,7.2.67,10.81a28.38,28.38,0,0,0,4.39,11.62c4.64,7.18,7.33,15.18,9.24,23.34,1.11,4.77,3.92,8.65,5.28,13.2,2,6.58,3.38,13.4.82,19.85-2,5.13-4.26,10.54-10.43,13-3.91,1.54-7.18,4.64-10.84,6.85-7.89,4.75-16.73,5.87-25.68,6.39C113.15,186,110.08,185.87,105.54,185.87Zm-1-2c8.66.17,15.89-.13,23-1.51,18.54-3.59,31.69-16.41,31.11-37.28-.21-7.71-2.58-14.8-5.41-21.82a1.87,1.87,0,0,0-1.34-1.34c-2.72-.67-5.41-1.58-8.16-2-7.46-1.25-14.86-2.81-22.42-3.45-7-.6-14.07-1.75-21.16-.84-10.63,1.37-21.3,1.21-32,.92-7.65-.21-8.45.16-11.06,7.35a6.46,6.46,0,0,1-.44.92,56.76,56.76,0,0,0-6.26,34.34c.65,5,2.74,9,7.4,11.84,4.42,2.75,9.31,3.82,14,5.69C82.76,181.09,93.7,185.52,104.51,183.91Zm-2.7-137.6c-4-.06-6.79-.05-9.27,1.25A41,41,0,0,0,74.83,66.13c-2.91,5.81-3,12.47-4.77,18.64-.76,2.63-3.51,5.63-2.1,7.67s5,2.16,7.64,3.18c3.76,1.46,7.27,3.61,11.56,3.4,7.4-.35,14.8-.35,22.2-.81,9.78-.61,19.55-1.25,29.31-2.24,2.93-.3,3.18-1.58,3-3.89-.51-5.18-1-10.35-1.32-15.54-.94-13.27-8.53-23.41-20.75-27.58C113.37,46.85,106.91,46.71,101.81,46.31Z" transform="translate(0)"/></g></svg>